<svg xmlns="http://www.w3.org/2000/svg" xmlns:xlink="http://www.w3.org/1999/xlink" width="500" zoomAndPan="magnify" viewBox="0 0 375 374.999991" height="500" preserveAspectRatio="xMidYMid meet" version="1.0"><defs><g/><clipPath id="a50d45a6fe"><rect x="0" width="198" y="0" height="71"/></clipPath><clipPath id="dc67fae875"><rect x="0" width="191" y="0" height="51"/></clipPath><clipPath id="85a7c52805"><path d="M 251 69.355469 L 315 69.355469 L 315 191 L 251 191 Z M 251 69.355469 " clip-rule="nonzero"/></clipPath></defs><g transform="matrix(1, 0, 0, 1, 46, 131)"><g clip-path="url(#a50d45a6fe)"><g fill="#000000" fill-opacity="1"><g transform="translate(18.738797, 48.668028)"><g><path d="M 33.828125 -22.015625 C 33.828125 -18.890625 33.300781 -15.988281 32.25 -13.3125 C 31.207031 -10.632812 29.738281 -8.304688 27.84375 -6.328125 C 25.957031 -4.347656 23.695312 -2.796875 21.0625 -1.671875 C 18.4375 -0.554688 15.539062 0 12.375 0 L 1.75 0 C 2.820312 -0.28125 3.519531 -0.835938 3.84375 -1.671875 C 4.164062 -2.515625 4.328125 -3.398438 4.328125 -4.328125 L 4.328125 -30.046875 C 4.328125 -30.984375 4.140625 -31.859375 3.765625 -32.671875 C 3.398438 -33.484375 2.726562 -34.007812 1.75 -34.25 L 11.1875 -34.25 C 10.15625 -34.007812 9.460938 -33.46875 9.109375 -32.625 C 8.765625 -31.789062 8.59375 -30.910156 8.59375 -29.984375 L 8.59375 -0.625 L 12.296875 -0.625 C 15.328125 -0.625 17.898438 -1.273438 20.015625 -2.578125 C 22.140625 -3.890625 23.890625 -5.59375 25.265625 -7.6875 C 26.640625 -9.78125 27.640625 -12.128906 28.265625 -14.734375 C 28.898438 -17.347656 29.21875 -19.960938 29.21875 -22.578125 C 29.21875 -25.742188 28.738281 -28.734375 27.78125 -31.546875 C 26.820312 -34.367188 25.445312 -36.835938 23.65625 -38.953125 C 21.863281 -41.078125 19.648438 -42.769531 17.015625 -44.03125 C 14.378906 -45.289062 11.382812 -45.921875 8.03125 -45.921875 C 4.863281 -45.921875 1.929688 -45.328125 -0.765625 -44.140625 C -3.472656 -42.953125 -5.800781 -41.332031 -7.75 -39.28125 C -9.707031 -37.226562 -11.234375 -34.828125 -12.328125 -32.078125 C -13.429688 -29.328125 -13.984375 -26.394531 -13.984375 -23.28125 C -13.984375 -20.945312 -13.675781 -18.726562 -13.0625 -16.625 C -12.457031 -14.53125 -11.550781 -12.65625 -10.34375 -11 C -9.132812 -9.351562 -7.628906 -7.957031 -5.828125 -6.8125 C -4.035156 -5.675781 -1.953125 -4.847656 0.421875 -4.328125 L 0 -3.703125 C -2.46875 -4.117188 -4.726562 -4.957031 -6.78125 -6.21875 C -8.832031 -7.476562 -10.585938 -9.003906 -12.046875 -10.796875 C -13.515625 -12.585938 -14.671875 -14.613281 -15.515625 -16.875 C -16.359375 -19.132812 -16.78125 -21.5 -16.78125 -23.96875 C -16.78125 -27.414062 -16.101562 -30.523438 -14.75 -33.296875 C -13.394531 -36.078125 -11.578125 -38.441406 -9.296875 -40.390625 C -7.015625 -42.347656 -4.367188 -43.863281 -1.359375 -44.9375 C 1.640625 -46.007812 4.769531 -46.546875 8.03125 -46.546875 C 11.53125 -46.546875 14.835938 -45.9375 17.953125 -44.71875 C 21.078125 -43.507812 23.816406 -41.820312 26.171875 -39.65625 C 28.523438 -37.488281 30.390625 -34.898438 31.765625 -31.890625 C 33.140625 -28.890625 33.828125 -25.597656 33.828125 -22.015625 Z M 33.828125 -22.015625 "/></g></g></g><g fill="#000000" fill-opacity="1"><g transform="translate(54.869399, 48.668028)"><g><path d="M 15.859375 -0.5625 C 18.054688 -0.5625 20.203125 -1.070312 22.296875 -2.09375 C 24.390625 -3.125 25.972656 -4.640625 27.046875 -6.640625 L 25.4375 0 L 2.453125 0 C 3.472656 -0.320312 4.144531 -0.914062 4.46875 -1.78125 C 4.800781 -2.644531 4.96875 -3.539062 4.96875 -4.46875 L 4.96875 -29.984375 C 4.96875 -30.910156 4.800781 -31.78125 4.46875 -32.59375 C 4.144531 -33.414062 3.472656 -33.96875 2.453125 -34.25 L 24.953125 -34.25 L 26.34375 -27.671875 C 25.269531 -29.722656 23.835938 -31.238281 22.046875 -32.21875 C 20.253906 -33.195312 18.21875 -33.6875 15.9375 -33.6875 L 9.21875 -33.6875 L 9.21875 -17.6875 L 13.5625 -17.6875 C 14.820312 -17.6875 15.984375 -17.953125 17.046875 -18.484375 C 18.117188 -19.023438 18.84375 -19.96875 19.21875 -21.3125 L 19.21875 -13.625 C 18.84375 -14.976562 18.117188 -15.898438 17.046875 -16.390625 C 15.984375 -16.878906 14.820312 -17.125 13.5625 -17.125 L 9.21875 -17.125 L 9.21875 -0.5625 Z M 15.859375 -0.5625 "/></g></g></g><g fill="#000000" fill-opacity="1"><g transform="translate(84.360912, 48.668028)"><g><path d="M 6.78125 -5.109375 C 6.78125 -3.796875 7.148438 -2.707031 7.890625 -1.84375 C 8.640625 -0.988281 9.617188 -0.375 10.828125 0 L 2.515625 0 C 5.035156 -0.789062 6.296875 -2.492188 6.296875 -5.109375 L 6.296875 -28.9375 C 6.296875 -30.195312 5.96875 -31.300781 5.3125 -32.25 C 4.65625 -33.207031 3.722656 -33.875 2.515625 -34.25 L 9.578125 -34.25 L 28.796875 -7.96875 L 28.796875 -29.140625 C 28.796875 -30.441406 28.457031 -31.523438 27.78125 -32.390625 C 27.101562 -33.253906 26.160156 -33.875 24.953125 -34.25 L 32.984375 -34.25 C 30.566406 -33.457031 29.359375 -31.753906 29.359375 -29.140625 L 29.359375 0 L 6.84375 -30.828125 Z M 6.78125 -5.109375 "/></g></g></g><g fill="#000000" fill-opacity="1"><g transform="translate(119.792649, 48.668028)"><g><path d="M 35.15625 -14.125 C 34.363281 -13.84375 33.78125 -13.335938 33.40625 -12.609375 C 33.03125 -11.890625 32.84375 -11.132812 32.84375 -10.34375 L 32.84375 0.28125 C 32.519531 -0.320312 32.085938 -0.953125 31.546875 -1.609375 C 31.015625 -2.265625 30.378906 -2.59375 29.640625 -2.59375 C 29.304688 -2.59375 28.820312 -2.453125 28.1875 -2.171875 C 27.5625 -1.890625 26.828125 -1.570312 25.984375 -1.21875 C 25.148438 -0.875 24.234375 -0.5625 23.234375 -0.28125 C 22.234375 0 21.175781 0.140625 20.0625 0.140625 C 17.632812 0.140625 15.347656 -0.300781 13.203125 -1.1875 C 11.066406 -2.070312 9.203125 -3.28125 7.609375 -4.8125 C 6.023438 -6.351562 4.78125 -8.171875 3.875 -10.265625 C 2.96875 -12.367188 2.515625 -14.65625 2.515625 -17.125 C 2.515625 -19.59375 2.96875 -21.875 3.875 -23.96875 C 4.78125 -26.070312 6.023438 -27.890625 7.609375 -29.421875 C 9.203125 -30.960938 11.066406 -32.175781 13.203125 -33.0625 C 15.347656 -33.945312 17.632812 -34.390625 20.0625 -34.390625 C 21.925781 -34.390625 23.878906 -34.144531 25.921875 -33.65625 C 27.972656 -33.164062 29.742188 -32.3125 31.234375 -31.09375 L 31.234375 -25.515625 C 30.535156 -26.492188 29.742188 -27.46875 28.859375 -28.4375 C 27.972656 -29.414062 26.992188 -30.300781 25.921875 -31.09375 C 24.859375 -31.894531 23.726562 -32.535156 22.53125 -33.015625 C 21.34375 -33.503906 20.125 -33.75 18.875 -33.75 C 16.914062 -33.75 15.210938 -33.238281 13.765625 -32.21875 C 12.328125 -31.195312 11.117188 -29.914062 10.140625 -28.375 C 9.160156 -26.832031 8.4375 -25.140625 7.96875 -23.296875 C 7.5 -21.460938 7.265625 -19.707031 7.265625 -18.03125 C 7.265625 -16.125 7.554688 -14.144531 8.140625 -12.09375 C 8.722656 -10.039062 9.570312 -8.148438 10.6875 -6.421875 C 11.8125 -4.703125 13.210938 -3.296875 14.890625 -2.203125 C 16.566406 -1.109375 18.476562 -0.5625 20.625 -0.5625 C 21.507812 -0.5625 22.453125 -0.710938 23.453125 -1.015625 C 24.453125 -1.316406 25.367188 -1.742188 26.203125 -2.296875 C 27.046875 -2.859375 27.734375 -3.535156 28.265625 -4.328125 C 28.804688 -5.117188 29.078125 -6.003906 29.078125 -6.984375 L 29.078125 -7.625 L 29.140625 -8.734375 C 29.140625 -9.242188 29.128906 -9.765625 29.109375 -10.296875 C 29.085938 -10.835938 29.003906 -11.363281 28.859375 -11.875 C 28.722656 -12.394531 28.488281 -12.851562 28.15625 -13.25 C 27.832031 -13.644531 27.367188 -13.9375 26.765625 -14.125 Z M 35.15625 -14.125 "/></g></g></g><g fill="#000000" fill-opacity="1"><g transform="translate(155.71358, 48.668028)"><g><path d="M 37.046875 -17.125 C 37.046875 -14.75 36.585938 -12.507812 35.671875 -10.40625 C 34.765625 -8.3125 33.53125 -6.484375 31.96875 -4.921875 C 30.414062 -3.367188 28.585938 -2.132812 26.484375 -1.21875 C 24.390625 -0.3125 22.15625 0.140625 19.78125 0.140625 C 17.40625 0.140625 15.164062 -0.3125 13.0625 -1.21875 C 10.96875 -2.132812 9.140625 -3.367188 7.578125 -4.921875 C 6.015625 -6.484375 4.78125 -8.3125 3.875 -10.40625 C 2.96875 -12.507812 2.515625 -14.75 2.515625 -17.125 C 2.515625 -19.5 2.96875 -21.734375 3.875 -23.828125 C 4.78125 -25.929688 6.015625 -27.757812 7.578125 -29.3125 C 9.140625 -30.875 10.96875 -32.109375 13.0625 -33.015625 C 15.164062 -33.929688 17.40625 -34.390625 19.78125 -34.390625 C 22.15625 -34.390625 24.390625 -33.929688 26.484375 -33.015625 C 28.585938 -32.109375 30.414062 -30.875 31.96875 -29.3125 C 33.53125 -27.757812 34.765625 -25.929688 35.671875 -23.828125 C 36.585938 -21.734375 37.046875 -19.5 37.046875 -17.125 Z M 7.34375 -17.96875 C 7.34375 -16.144531 7.644531 -14.195312 8.25 -12.125 C 8.851562 -10.050781 9.722656 -8.140625 10.859375 -6.390625 C 12.003906 -4.648438 13.40625 -3.207031 15.0625 -2.0625 C 16.71875 -0.914062 18.59375 -0.34375 20.6875 -0.34375 C 22.644531 -0.34375 24.367188 -0.851562 25.859375 -1.875 C 27.347656 -2.90625 28.582031 -4.210938 29.5625 -5.796875 C 30.539062 -7.378906 31.273438 -9.101562 31.765625 -10.96875 C 32.253906 -12.832031 32.5 -14.601562 32.5 -16.28125 C 32.5 -18.195312 32.207031 -20.175781 31.625 -22.21875 C 31.039062 -24.269531 30.164062 -26.15625 29 -27.875 C 27.832031 -29.601562 26.421875 -31.023438 24.765625 -32.140625 C 23.117188 -33.265625 21.203125 -33.828125 19.015625 -33.828125 C 17.054688 -33.828125 15.351562 -33.3125 13.90625 -32.28125 C 12.457031 -31.257812 11.242188 -29.957031 10.265625 -28.375 C 9.296875 -26.789062 8.566406 -25.078125 8.078125 -23.234375 C 7.585938 -21.398438 7.34375 -19.644531 7.34375 -17.96875 Z M 7.34375 -17.96875 "/></g></g></g></g></g><g transform="matrix(1, 0, 0, 1, 99, 183)"><g clip-path="url(#dc67fae875)"><g fill="#000000" fill-opacity="1"><g transform="translate(0.713137, 34.946643)"><g><path d="M 41.96875 1.859375 C 44.164062 1.859375 46.304688 2.316406 48.390625 3.234375 C 50.484375 4.148438 52.296875 5.359375 53.828125 6.859375 L 53.6875 7.0625 C 52.082031 5.65625 50.328125 4.71875 48.421875 4.25 C 46.523438 3.789062 44.539062 3.5625 42.46875 3.5625 C 41.0625 3.5625 39.691406 3.625 38.359375 3.75 C 37.023438 3.882812 35.671875 4.050781 34.296875 4.25 L 31.953125 4.5625 C 30.578125 4.757812 29.210938 4.925781 27.859375 5.0625 C 26.515625 5.195312 25.15625 5.265625 23.78125 5.265625 C 21.550781 5.265625 19.382812 5.03125 17.28125 4.5625 C 15.175781 4.09375 13.222656 3.375 11.421875 2.40625 C 9.617188 1.4375 8 0.1875 6.5625 -1.34375 C 5.125 -2.882812 3.9375 -4.722656 3 -6.859375 C 2.46875 -8.128906 2.0625 -9.4375 1.78125 -10.78125 C 1.5 -12.132812 1.359375 -13.515625 1.359375 -14.921875 C 1.359375 -17.054688 1.738281 -19.023438 2.5 -20.828125 C 3.269531 -22.628906 4.332031 -24.191406 5.6875 -25.515625 C 7.039062 -26.835938 8.625 -27.875 10.4375 -28.625 C 12.257812 -29.375 14.238281 -29.75 16.375 -29.75 C 16.539062 -29.75 16.710938 -29.75 16.890625 -29.75 C 17.078125 -29.75 17.253906 -29.734375 17.421875 -29.703125 L 18.171875 -29.640625 L 18.421875 -29.640625 L 18.984375 -29.59375 C 19.578125 -29.59375 20.132812 -29.664062 20.65625 -29.8125 C 21.175781 -29.96875 21.550781 -30.378906 21.78125 -31.046875 L 22.9375 -24.890625 C 22.40625 -26.117188 21.519531 -27.164062 20.28125 -28.03125 C 19.039062 -28.90625 17.738281 -29.34375 16.375 -29.34375 C 14.269531 -29.34375 12.488281 -28.929688 11.03125 -28.109375 C 9.582031 -27.296875 8.398438 -26.222656 7.484375 -24.890625 C 6.566406 -23.554688 5.898438 -22.019531 5.484375 -20.28125 C 5.066406 -18.539062 4.859375 -16.753906 4.859375 -14.921875 C 4.859375 -12.117188 5.25 -9.515625 6.03125 -7.109375 C 6.820312 -4.703125 7.984375 -2.625 9.515625 -0.875 C 11.046875 0.875 12.9375 2.25 15.1875 3.25 C 17.445312 4.25 20.046875 4.75 22.984375 4.75 C 24.421875 4.75 25.820312 4.632812 27.1875 4.40625 C 28.5625 4.175781 29.929688 3.894531 31.296875 3.5625 L 33.65625 3.0625 C 35.050781 2.71875 36.429688 2.429688 37.796875 2.203125 C 39.171875 1.972656 40.5625 1.859375 41.96875 1.859375 Z M 41.96875 1.859375 "/></g></g></g><g fill="#000000" fill-opacity="1"><g transform="translate(17.791148, 34.946643)"><g><path d="M 5.203125 -2.296875 C 5.203125 -1.671875 5.382812 -1.171875 5.75 -0.796875 C 6.125 -0.429688 6.59375 -0.164062 7.15625 0 L 1.796875 0 C 2.398438 -0.195312 2.96875 -0.5625 3.5 -1.09375 C 4.039062 -1.632812 4.425781 -2.222656 4.65625 -2.859375 L 13.171875 -24.84375 L 21.734375 -2.859375 C 22.003906 -2.253906 22.347656 -1.675781 22.765625 -1.125 C 23.179688 -0.570312 23.707031 -0.195312 24.34375 0 L 17.125 0 C 17.5625 -0.132812 17.921875 -0.425781 18.203125 -0.875 C 18.484375 -1.320312 18.625 -1.75 18.625 -2.15625 C 18.625 -2.414062 18.503906 -2.878906 18.265625 -3.546875 C 18.035156 -4.222656 17.769531 -4.941406 17.46875 -5.703125 C 17.175781 -6.472656 16.882812 -7.207031 16.59375 -7.90625 C 16.3125 -8.613281 16.101562 -9.132812 15.96875 -9.46875 L 7.71875 -9.46875 C 7.582031 -9.132812 7.378906 -8.640625 7.109375 -7.984375 C 6.835938 -7.335938 6.5625 -6.65625 6.28125 -5.9375 C 6 -5.21875 5.75 -4.523438 5.53125 -3.859375 C 5.3125 -3.191406 5.203125 -2.671875 5.203125 -2.296875 Z M 7.8125 -9.859375 L 15.78125 -9.859375 L 11.8125 -20.1875 Z M 7.8125 -9.859375 "/></g></g></g><g fill="#000000" fill-opacity="1"><g transform="translate(43.934033, 34.946643)"><g><path d="M 6.609375 -3.203125 C 6.609375 -2.535156 6.722656 -1.890625 6.953125 -1.265625 C 7.191406 -0.648438 7.660156 -0.226562 8.359375 0 L 1.75 0 C 2.488281 -0.226562 2.972656 -0.648438 3.203125 -1.265625 C 3.441406 -1.890625 3.5625 -2.535156 3.5625 -3.203125 L 3.5625 -21.484375 C 3.5625 -22.148438 3.441406 -22.765625 3.203125 -23.328125 C 2.972656 -23.898438 2.488281 -24.300781 1.75 -24.53125 L 17.875 -24.53125 L 18.875 -19.828125 C 18.113281 -21.296875 17.085938 -22.378906 15.796875 -23.078125 C 14.515625 -23.785156 13.054688 -24.140625 11.421875 -24.140625 L 6.609375 -24.140625 L 6.609375 -12.671875 L 9.71875 -12.671875 C 10.582031 -12.671875 11.40625 -12.882812 12.1875 -13.3125 C 12.976562 -13.75 13.503906 -14.40625 13.765625 -15.28125 L 13.765625 -9.765625 C 13.503906 -10.628906 12.976562 -11.257812 12.1875 -11.65625 C 11.40625 -12.0625 10.582031 -12.265625 9.71875 -12.265625 L 6.609375 -12.265625 Z M 6.609375 -3.203125 "/></g></g></g><g fill="#000000" fill-opacity="1"><g transform="translate(64.567892, 34.946643)"><g><path d="M 11.375 -0.40625 C 12.9375 -0.40625 14.46875 -0.769531 15.96875 -1.5 C 17.476562 -2.238281 18.613281 -3.320312 19.375 -4.75 L 18.234375 0 L 1.75 0 C 2.488281 -0.226562 2.972656 -0.648438 3.203125 -1.265625 C 3.441406 -1.890625 3.5625 -2.535156 3.5625 -3.203125 L 3.5625 -21.484375 C 3.5625 -22.148438 3.441406 -22.773438 3.203125 -23.359375 C 2.972656 -23.941406 2.488281 -24.332031 1.75 -24.53125 L 17.875 -24.53125 L 18.875 -19.828125 C 18.113281 -21.296875 17.085938 -22.378906 15.796875 -23.078125 C 14.515625 -23.785156 13.054688 -24.140625 11.421875 -24.140625 L 6.609375 -24.140625 L 6.609375 -12.671875 L 9.71875 -12.671875 C 10.613281 -12.671875 11.445312 -12.863281 12.21875 -13.25 C 12.988281 -13.632812 13.503906 -14.3125 13.765625 -15.28125 L 13.765625 -9.765625 C 13.503906 -10.734375 12.988281 -11.390625 12.21875 -11.734375 C 11.445312 -12.085938 10.613281 -12.265625 9.71875 -12.265625 L 6.609375 -12.265625 L 6.609375 -0.40625 Z M 11.375 -0.40625 "/></g></g></g><g fill="#000000" fill-opacity="1"><g transform="translate(85.702566, 34.946643)"><g><path d="M 13.46875 -3.203125 C 13.46875 -2.535156 13.582031 -1.890625 13.8125 -1.265625 C 14.050781 -0.648438 14.539062 -0.226562 15.28125 0 L 8.609375 0 C 9.378906 -0.226562 9.875 -0.644531 10.09375 -1.25 C 10.3125 -1.851562 10.421875 -2.503906 10.421875 -3.203125 L 10.46875 -23.984375 L 8.109375 -23.984375 C 6.773438 -23.984375 5.546875 -23.632812 4.421875 -22.9375 C 3.304688 -22.238281 2.429688 -21.300781 1.796875 -20.125 L 2.65625 -24.53125 L 21.234375 -24.53125 L 22.140625 -20.1875 C 21.503906 -21.28125 20.617188 -22.1875 19.484375 -22.90625 C 18.347656 -23.625 17.128906 -23.984375 15.828125 -23.984375 L 13.46875 -23.984375 Z M 13.46875 -3.203125 "/></g></g></g><g fill="#000000" fill-opacity="1"><g transform="translate(109.591754, 34.946643)"><g><path d="M 11.375 -0.40625 C 12.9375 -0.40625 14.46875 -0.769531 15.96875 -1.5 C 17.476562 -2.238281 18.613281 -3.320312 19.375 -4.75 L 18.234375 0 L 1.75 0 C 2.488281 -0.226562 2.972656 -0.648438 3.203125 -1.265625 C 3.441406 -1.890625 3.5625 -2.535156 3.5625 -3.203125 L 3.5625 -21.484375 C 3.5625 -22.148438 3.441406 -22.773438 3.203125 -23.359375 C 2.972656 -23.941406 2.488281 -24.332031 1.75 -24.53125 L 17.875 -24.53125 L 18.875 -19.828125 C 18.113281 -21.296875 17.085938 -22.378906 15.796875 -23.078125 C 14.515625 -23.785156 13.054688 -24.140625 11.421875 -24.140625 L 6.609375 -24.140625 L 6.609375 -12.671875 L 9.71875 -12.671875 C 10.613281 -12.671875 11.445312 -12.863281 12.21875 -13.25 C 12.988281 -13.632812 13.503906 -14.3125 13.765625 -15.28125 L 13.765625 -9.765625 C 13.503906 -10.734375 12.988281 -11.390625 12.21875 -11.734375 C 11.445312 -12.085938 10.613281 -12.265625 9.71875 -12.265625 L 6.609375 -12.265625 L 6.609375 -0.40625 Z M 11.375 -0.40625 "/></g></g></g><g fill="#000000" fill-opacity="1"><g transform="translate(130.726429, 34.946643)"><g><path d="M 6.609375 -3.109375 C 6.609375 -2.441406 6.738281 -1.8125 7 -1.21875 C 7.269531 -0.632812 7.738281 -0.226562 8.40625 0 L 1.796875 0 C 2.503906 -0.226562 2.972656 -0.648438 3.203125 -1.265625 C 3.441406 -1.890625 3.5625 -2.535156 3.5625 -3.203125 L 3.5625 -21.484375 C 3.5625 -22.148438 3.441406 -22.773438 3.203125 -23.359375 C 2.972656 -23.941406 2.503906 -24.332031 1.796875 -24.53125 L 10.3125 -24.53125 C 11.519531 -24.53125 12.695312 -24.394531 13.84375 -24.125 C 15 -23.863281 16.023438 -23.441406 16.921875 -22.859375 C 17.828125 -22.273438 18.554688 -21.503906 19.109375 -20.546875 C 19.660156 -19.597656 19.9375 -18.441406 19.9375 -17.078125 C 19.9375 -15.109375 19.34375 -13.503906 18.15625 -12.265625 C 16.96875 -11.035156 15.457031 -10.203125 13.625 -9.765625 L 18.171875 -2.40625 C 18.546875 -1.875 18.984375 -1.390625 19.484375 -0.953125 C 19.984375 -0.515625 20.515625 -0.195312 21.078125 0 L 16.421875 0 L 10.46875 -9.671875 L 6.609375 -9.671875 Z M 6.609375 -10.015625 L 10.015625 -10.015625 C 12.117188 -10.015625 13.78125 -10.664062 15 -11.96875 C 16.21875 -13.269531 16.828125 -14.972656 16.828125 -17.078125 C 16.828125 -19.273438 16.242188 -21 15.078125 -22.25 C 13.910156 -23.507812 12.222656 -24.140625 10.015625 -24.140625 L 6.609375 -24.140625 Z M 6.609375 -10.015625 "/></g></g></g><g fill="#000000" fill-opacity="1"><g transform="translate(153.613984, 34.946643)"><g><path d="M 6.609375 -3.203125 C 6.609375 -2.535156 6.722656 -1.890625 6.953125 -1.265625 C 7.191406 -0.648438 7.660156 -0.226562 8.359375 0 L 1.75 0 C 2.488281 -0.226562 2.972656 -0.644531 3.203125 -1.25 C 3.441406 -1.851562 3.5625 -2.503906 3.5625 -3.203125 L 3.5625 -21.484375 C 3.5625 -22.148438 3.441406 -22.765625 3.203125 -23.328125 C 2.972656 -23.898438 2.488281 -24.300781 1.75 -24.53125 L 8.359375 -24.53125 C 7.660156 -24.300781 7.191406 -23.898438 6.953125 -23.328125 C 6.722656 -22.765625 6.609375 -22.148438 6.609375 -21.484375 Z M 6.609375 -3.203125 "/></g></g></g><g fill="#000000" fill-opacity="1"><g transform="translate(163.730576, 34.946643)"><g><path d="M 5.203125 -2.296875 C 5.203125 -1.671875 5.382812 -1.171875 5.75 -0.796875 C 6.125 -0.429688 6.59375 -0.164062 7.15625 0 L 1.796875 0 C 2.398438 -0.195312 2.96875 -0.5625 3.5 -1.09375 C 4.039062 -1.632812 4.425781 -2.222656 4.65625 -2.859375 L 13.171875 -24.84375 L 21.734375 -2.859375 C 22.003906 -2.253906 22.347656 -1.675781 22.765625 -1.125 C 23.179688 -0.570312 23.707031 -0.195312 24.34375 0 L 17.125 0 C 17.5625 -0.132812 17.921875 -0.425781 18.203125 -0.875 C 18.484375 -1.320312 18.625 -1.75 18.625 -2.15625 C 18.625 -2.414062 18.503906 -2.878906 18.265625 -3.546875 C 18.035156 -4.222656 17.769531 -4.941406 17.46875 -5.703125 C 17.175781 -6.472656 16.882812 -7.207031 16.59375 -7.90625 C 16.3125 -8.613281 16.101562 -9.132812 15.96875 -9.46875 L 7.71875 -9.46875 C 7.582031 -9.132812 7.378906 -8.640625 7.109375 -7.984375 C 6.835938 -7.335938 6.5625 -6.65625 6.28125 -5.9375 C 6 -5.21875 5.75 -4.523438 5.53125 -3.859375 C 5.3125 -3.191406 5.203125 -2.671875 5.203125 -2.296875 Z M 7.8125 -9.859375 L 15.78125 -9.859375 L 11.8125 -20.1875 Z M 7.8125 -9.859375 "/></g></g></g></g></g><g clip-path="url(#85a7c52805)"><path fill="#693b23" d="M 280.570312 69.355469 C 280.570312 69.355469 290.765625 78.6875 288.828125 86.847656 C 286.894531 95.011719 276.570312 105.636719 274.890625 117.039062 C 274.890625 117.039062 297.257812 110.015625 308.554688 115.832031 C 318.410156 120.910156 314.355469 129.097656 307.5 134.882812 C 299.757812 141.417969 290.78125 144.007812 280.457031 145.25 C 270.132812 146.488281 257.230469 151.785156 257.902344 161.359375 C 258.574219 170.9375 267.234375 178.566406 263.878906 186.210938 C 260.523438 193.855469 250.972656 189.710938 251.488281 181.289062 C 252.003906 172.867188 261.8125 168.199219 254.457031 150.835938 C 247.101562 133.472656 266.84375 122.199219 266.84375 122.199219 C 266.84375 122.199219 272.40625 127.703125 282.058594 128.878906 C 282.058594 128.878906 265.695312 120.503906 267.453125 109.335938 C 269.210938 98.164062 290.191406 83.269531 280.570312 69.355469 Z M 280.570312 69.355469 " fill-opacity="1" fill-rule="evenodd"/></g><path fill="#33190a" d="M 278.382812 109.980469 C 321.71875 97.050781 339.523438 139.167969 282.394531 148.726562 C 271.28125 150.585938 264.796875 153.609375 264.796875 153.609375 C 264.796875 153.609375 275.335938 151.398438 292.121094 150.121094 C 308.910156 148.839844 313.078125 138.726562 316.78125 147.214844 C 323.226562 161.972656 289.335938 180.628906 266.648438 160.351562 C 266.648438 160.351562 271.050781 167.207031 280.542969 170.8125 C 280.542969 170.8125 285.074219 176.832031 296.195312 175.601562 C 308.214844 174.273438 317.71875 166.640625 321.964844 155.617188 C 321.964844 155.617188 343.28125 143.609375 346.144531 131.390625 C 349.007812 119.167969 344.125 114.984375 327.140625 120.34375 C 325.019531 103.082031 289.714844 103.570312 278.382812 109.980469 Z M 326.015625 127.804688 C 349.792969 115.621094 341.554688 142.332031 325.714844 146.964844 C 327.179688 141.074219 327.617188 133.699219 326.015625 127.804688 Z M 326.015625 127.804688 " fill-opacity="1" fill-rule="evenodd"/><path fill="#ecbd63" d="M 279.820312 118.90625 C 279.820312 118.90625 296.757812 111.765625 308.066406 119 C 319.375 126.234375 298.945312 137.910156 293.832031 139.175781 C 320.46875 125.804688 304.203125 112.972656 279.820312 118.90625 Z M 279.820312 118.90625 " fill-opacity="1" fill-rule="evenodd"/></svg>