<svg xmlns="http://www.w3.org/2000/svg" xmlns:xlink="http://www.w3.org/1999/xlink" width="500" zoomAndPan="magnify" viewBox="0 0 375 374.999991" height="500" preserveAspectRatio="xMidYMid meet" version="1.0"><defs><clipPath id="3d52b235c8"><path d="M 140 125.355469 L 204 125.355469 L 204 247 L 140 247 Z M 140 125.355469 " clip-rule="nonzero"/></clipPath></defs><g clip-path="url(#3d52b235c8)"><path fill="#693b23" d="M 169.492188 125.355469 C 169.492188 125.355469 179.6875 134.683594 177.753906 142.847656 C 175.816406 151.007812 165.492188 161.636719 163.816406 173.039062 C 163.816406 173.039062 186.183594 166.015625 197.476562 171.832031 C 207.335938 176.90625 203.28125 185.09375 196.425781 190.878906 C 188.683594 197.414062 179.703125 200.007812 169.382812 201.246094 C 159.058594 202.484375 146.152344 207.78125 146.828125 217.359375 C 147.5 226.933594 156.15625 234.5625 152.800781 242.207031 C 149.445312 249.855469 139.898438 245.707031 140.414062 237.285156 C 140.929688 228.863281 150.738281 224.199219 143.382812 206.835938 C 136.027344 189.472656 155.769531 178.199219 155.769531 178.199219 C 155.769531 178.199219 161.332031 183.703125 170.984375 184.878906 C 170.984375 184.878906 154.621094 176.503906 156.375 165.332031 C 158.132812 154.160156 179.113281 139.269531 169.492188 125.351562 Z M 169.492188 125.355469 " fill-opacity="1" fill-rule="evenodd"/></g><path fill="#33190a" d="M 167.304688 165.976562 C 210.644531 153.046875 228.449219 195.164062 171.320312 204.722656 C 160.207031 206.582031 153.722656 209.605469 153.722656 209.605469 C 153.722656 209.605469 164.257812 207.394531 181.046875 206.117188 C 197.832031 204.835938 202 194.722656 205.707031 203.210938 C 212.152344 217.972656 178.261719 236.625 155.574219 216.347656 C 155.574219 216.347656 159.972656 223.207031 169.46875 226.808594 C 169.46875 226.808594 174 232.832031 185.117188 231.597656 C 197.136719 230.269531 206.644531 222.636719 210.886719 211.613281 C 210.886719 211.613281 232.203125 199.605469 235.066406 187.386719 C 237.929688 175.164062 233.050781 170.980469 216.0625 176.339844 C 213.941406 159.078125 178.640625 159.566406 167.304688 165.976562 Z M 214.941406 183.800781 C 238.714844 171.621094 230.480469 198.328125 214.636719 202.960938 C 216.105469 197.070312 216.539062 189.695312 214.941406 183.800781 Z M 214.941406 183.800781 " fill-opacity="1" fill-rule="evenodd"/><path fill="#ecbd63" d="M 168.742188 174.902344 C 168.742188 174.902344 185.683594 167.761719 196.992188 174.996094 C 208.300781 182.230469 187.867188 193.90625 182.757812 195.171875 C 209.390625 181.800781 193.125 168.96875 168.742188 174.902344 Z M 168.742188 174.902344 " fill-opacity="1" fill-rule="evenodd"/></svg>