<svg xmlns="http://www.w3.org/2000/svg" xmlns:xlink="http://www.w3.org/1999/xlink" width="500" zoomAndPan="magnify" viewBox="0 0 375 374.999991" height="500" preserveAspectRatio="xMidYMid meet" version="1.0"><path fill="#693b23" d="M 133.339844 0 C 133.339844 0 164.148438 28.101562 158.296875 52.6875 C 152.445312 77.277344 121.25 109.28125 116.183594 143.625 C 116.183594 143.625 183.765625 122.472656 217.898438 139.988281 C 247.679688 155.28125 235.433594 179.941406 214.71875 197.367188 C 191.324219 217.050781 164.195312 224.859375 133 228.589844 C 101.804688 232.324219 62.8125 248.273438 64.847656 277.121094 C 66.882812 305.96875 93.042969 328.949219 82.902344 351.972656 C 72.765625 375 43.910156 362.511719 45.46875 337.140625 C 47.03125 311.773438 76.664062 297.722656 54.4375 245.421875 C 32.210938 193.125 91.871094 159.167969 91.871094 159.167969 C 91.871094 159.167969 108.671875 175.746094 137.839844 179.289062 C 137.839844 179.289062 88.398438 154.0625 93.707031 120.417969 C 99.011719 86.769531 162.410156 41.910156 133.339844 0 Z M 133.339844 0 " fill-opacity="1" fill-rule="evenodd"/><path fill="#33190a" d="M 126.726562 122.363281 C 257.679688 83.414062 311.480469 210.273438 138.859375 239.0625 C 105.273438 244.664062 85.683594 253.765625 85.683594 253.765625 C 85.683594 253.765625 117.519531 247.113281 168.246094 243.261719 C 218.972656 239.410156 231.566406 208.945312 242.761719 234.507812 C 262.238281 278.96875 159.832031 335.15625 91.28125 274.078125 C 91.28125 274.078125 104.574219 294.734375 133.261719 305.589844 C 133.261719 305.589844 146.957031 323.726562 180.550781 320.015625 C 216.871094 316.007812 245.59375 293.023438 258.417969 259.816406 C 258.417969 259.816406 322.828125 223.652344 331.480469 186.84375 C 340.136719 150.035156 325.386719 137.433594 274.058594 153.578125 C 267.648438 101.582031 160.976562 103.050781 126.726562 122.363281 Z M 270.664062 176.042969 C 342.507812 139.355469 317.617188 219.804688 269.746094 233.757812 C 274.179688 216.011719 275.5 193.796875 270.664062 176.042969 Z M 270.664062 176.042969 " fill-opacity="1" fill-rule="evenodd"/><path fill="#ecbd63" d="M 131.074219 149.242188 C 131.074219 149.242188 182.253906 127.738281 216.425781 149.53125 C 250.597656 171.320312 188.863281 206.484375 173.417969 210.296875 C 253.898438 170.019531 204.75 131.371094 131.074219 149.242188 Z M 131.074219 149.242188 " fill-opacity="1" fill-rule="evenodd"/></svg>