<svg xmlns="http://www.w3.org/2000/svg" xmlns:xlink="http://www.w3.org/1999/xlink" width="500" zoomAndPan="magnify" viewBox="0 0 375 374.999991" height="500" preserveAspectRatio="xMidYMid meet" version="1.0"><defs><clipPath id="518fb17c8f"><path d="M 140 125.355469 L 204 125.355469 L 204 247 L 140 247 Z M 140 125.355469 " clip-rule="nonzero"/></clipPath></defs><g clip-path="url(#518fb17c8f)"><path fill="#ecbd63" d="M 169.574219 125.355469 C 169.574219 125.355469 179.792969 134.667969 177.851562 142.816406 C 175.914062 150.964844 165.5625 161.574219 163.882812 172.957031 C 163.882812 172.957031 186.300781 165.945312 197.625 171.75 C 207.503906 176.820312 203.441406 184.992188 196.570312 190.769531 C 188.808594 197.292969 179.808594 199.878906 169.460938 201.117188 C 159.113281 202.355469 146.175781 207.640625 146.851562 217.203125 C 147.527344 226.761719 156.207031 234.378906 152.84375 242.011719 C 149.480469 249.644531 139.90625 245.503906 140.425781 237.09375 C 140.941406 228.6875 150.773438 224.03125 143.398438 206.695312 C 136.027344 189.363281 155.816406 178.109375 155.816406 178.109375 C 155.816406 178.109375 161.390625 183.601562 171.066406 184.777344 C 171.066406 184.777344 154.664062 176.414062 156.425781 165.265625 C 158.1875 154.113281 179.21875 139.242188 169.574219 125.351562 Z M 169.574219 125.355469 " fill-opacity="1" fill-rule="evenodd"/></g><path fill="#ffffff" d="M 167.378906 165.910156 C 210.824219 153 228.667969 195.046875 171.40625 204.585938 C 160.265625 206.445312 153.765625 209.460938 153.765625 209.460938 C 153.765625 209.460938 164.324219 207.257812 181.152344 205.980469 C 197.980469 204.703125 202.160156 194.605469 205.875 203.078125 C 212.332031 217.8125 178.363281 236.4375 155.621094 216.191406 C 155.621094 216.191406 160.03125 223.039062 169.546875 226.636719 C 169.546875 226.636719 174.089844 232.648438 185.234375 231.417969 C 197.285156 230.089844 206.8125 222.472656 211.066406 211.464844 C 211.066406 211.464844 232.433594 199.480469 235.304688 187.28125 C 238.175781 175.082031 233.28125 170.90625 216.253906 176.253906 C 214.128906 159.019531 178.742188 159.507812 167.378906 165.910156 Z M 215.128906 183.699219 C 238.960938 171.539062 230.707031 198.203125 214.824219 202.828125 C 216.296875 196.949219 216.734375 189.585938 215.128906 183.699219 Z M 215.128906 183.699219 " fill-opacity="1" fill-rule="evenodd"/><path fill="#33190a" d="M 168.820312 174.816406 C 168.820312 174.816406 185.800781 167.691406 197.136719 174.914062 C 208.472656 182.136719 187.992188 193.789062 182.871094 195.054688 C 209.566406 181.703125 193.261719 168.894531 168.820312 174.816406 Z M 168.820312 174.816406 " fill-opacity="1" fill-rule="evenodd"/></svg>